<?xml version="1.0" encoding="utf-8"?>
<!-- Generator: Adobe Illustrator 25.0.0, SVG Export Plug-In . SVG Version: 6.00 Build 0)  -->
<svg version="1.1" xmlns="http://www.w3.org/2000/svg" xmlns:xlink="http://www.w3.org/1999/xlink" x="0px" y="0px"
	 viewBox="0 0 246.89 321.87" style="enable-background:new 0 0 246.89 321.87;" xml:space="preserve">
<style type="text/css">
	.st0{fill:#FFFFFF;}
</style>
<g id="BACKGROUND">
</g>
<g id="OBJECTS">
	<path class="st0" d="M2.16,192.33c-0.03,0.19-0.07,0.37-0.1,0.56c-0.82,5.39,0.96,6.88,6.28,6.3c1.6-0.18,3.23-0.03,6.48-0.03
		c-2.72,8.58-5.39,16.99-8.05,25.38l-3.32-1.38l149.15,98.71c-2.08-5.08-3.34-8.06-3.34-8.06l-4.49-32l-5.39-2.24
		c-0.25-4.18-0.47-8.35-0.68-12.53c-0.19-3.62,1.89-5.39,5.68-6.78c5.16-1.9,12.25-3.97,17.02-6.92
		c7.02-4.34,11.37-10.41,18.46-14.63c8.12-4.82,16.85-8.76,24.44-14.28c9.95-7.23,10.54-20.04,2.35-31.63
		c1.2-0.58,2.3-1.37,3.52-1.64c3.36-0.76,5.87-1.54,5.15-6.18c-0.09-0.61-2.95-2.65-2.95-2.65s3.45-1.89,3.82-3.2
		c0.63-2.24,0.52-3.34-0.19-5.58c-1.32-4.17-3.09-8.17-4.53-12.29c3.12-0.61,5.05-1,6.99-1.35c1.96-0.36,3.97-0.5,5.88-1.04
		c5.67-1.6,7.83-5.07,5.84-10.52c-1.58-4.33-3.97-8.39-6.23-12.43c-3.73-6.66-7.71-13.18-11.43-19.85c-0.69-1.23-1.07-2.92-0.9-4.31
		c0.6-4.94,3.26-7.2,3.24-12.18c-0.02-4.9-2.65-12.46-4.29-17.56c0.33,0.05,0.67,0.1,1,0.16c3.12,0.97,6.03,1.26,8.85,1.08
		c1.26,0.11,2.52,0.23,3.79,0.3c6.11,0.36,13.79,0.06,18.34-4.55c4.84-4.9,6.43-16.05,0.46-20.98c-2.96-2.44-8-2.75-11.5-3.96
		c-5.7-1.98-10.85-4.93-15.31-9c-10.8-9.87-19.33-19.65-33-25.8c-14.77-6.65-30.2-9.2-46.18-11.34c-15.93-2.13-31.4-7.35-47.57-7.9
		C77.74-0.37,56.4,3.29,49.74,14.41c-1.6,2.67-2.34,9.75-1.37,15.4c-11.21-0.94-21.51,0.13-27.26,12.11
		c-5.46,11.37-5.63,23.58-7.49,35.73C12.21,86.89,7.76,94.27,5,103.02c-2.8,8.87-2.68,17.94-0.92,27.01
		c0.59,3.03,1.14,5.85,1.52,8.58c-0.21,4.7-0.21,9.42-0.15,14.14c-0.24,1.23-0.55,2.49-0.95,3.8c-2.45,8.04-4.39,14.67-4.4,23.22
		c0,3.62-0.69,8.65,1.48,11.82C1.78,191.85,1.97,192.09,2.16,192.33z"/>
</g>
<g id="DESIGNED_BY_FREEPIK">
</g>
</svg>
